<svg xmlns="http://www.w3.org/2000/svg" viewBox="0 0 48 48" fill="none">
  <!-- Shield outer glow ring -->
  <path d="M24 2L43 12V28C43 38 34 44.5 24 47C14 44.5 5 38 5 28V12L24 2Z"
        fill="#0d1b2e" stroke="#26c768" stroke-width="1.5" stroke-linejoin="round"/>
  <!-- Inner shield highlight -->
  <path d="M24 6L39 14.5V27C39 35.5 32 41 24 43.5C16 41 9 35.5 9 27V14.5L24 6Z"
        fill="none" stroke="#26c768" stroke-width="0.5" stroke-linejoin="round" stroke-dasharray="1.5 2" opacity="0.4"/>
  <!-- Lock body -->
  <rect x="15.5" y="24" width="17" height="13" rx="3" fill="#26c768"/>
  <!-- Lock shackle -->
  <path d="M19 24V20C19 16.2 29 16.2 29 20V24"
        stroke="#26c768" stroke-width="2.5" stroke-linecap="round" stroke-linejoin="round"/>
  <!-- Keyhole -->
  <circle cx="24" cy="29.5" r="2.2" fill="#0d1b2e"/>
  <rect x="22.8" y="30.5" width="2.4" height="4" rx="0.8" fill="#0d1b2e"/>
</svg>
